<svg xmlns="http://www.w3.org/2000/svg" xmlns:xlink="http://www.w3.org/1999/xlink" width="500" zoomAndPan="magnify" viewBox="0 0 375 374.999991" height="500" preserveAspectRatio="xMidYMid meet" version="1.0">
	<defs>
		<g />
		<clipPath id="2faeac1d71">
			<path d="M 43.855469 104.785156 L 79.855469 104.785156 L 79.855469 177.535156 L 43.855469 177.535156 Z M 43.855469 104.785156 " clip-rule="nonzero" />
		</clipPath>
	</defs>
	<g clip-path="url(#2faeac1d71)">
		<path fill="#f2f2f2" d="M 79.855469 141.097656 L 43.855469 120.339844 L 52.828125 141.097656 L 43.855469 161.855469 Z M 70.886719 104.789062 L 44.742188 119.863281 L 70.886719 134.941406 Z M 70.886719 147.378906 L 44.742188 162.457031 L 70.886719 177.53125 Z M 70.886719 147.378906 " fill-opacity="1" fill-rule="nonzero" />
	</g>
	<g fill="#e2b250" fill-opacity="1">
		<g transform="translate(79.444445, 158.341649)">
			<g>
				<path d="M 21.898438 -39.207031 L 16.578125 -39.207031 L 16.578125 -4.59375 C 16.578125 -4.3125 14.730469 -4.089844 12.042969 -4.089844 C 9.296875 -4.089844 7.449219 -4.3125 7.449219 -4.59375 L 7.449219 -39.207031 L 2.128906 -39.207031 L 2.128906 -5.542969 C 2.128906 -1.902344 6.105469 0.558594 12.042969 0.558594 C 17.921875 0.558594 21.898438 -1.902344 21.898438 -5.542969 L 21.898438 -38.925781 C 21.957031 -38.925781 21.957031 -38.980469 21.898438 -39.09375 C 21.957031 -39.148438 21.957031 -39.207031 21.898438 -39.207031 Z M 21.898438 -39.207031 " />
			</g>
		</g>
	</g>
	<g fill="#e2b250" fill-opacity="1">
		<g transform="translate(103.579334, 158.341649)">
			<g>
				<path d="M 1.0625 -10.921875 L 1.0625 -5.207031 C 1.0625 -4.648438 1.175781 -4.144531 1.34375 -3.640625 L 1.34375 -3.585938 C 2.351562 -1.007812 5.9375 0.617188 10.867188 0.617188 C 16.746094 0.617188 20.667969 -2.296875 20.667969 -6.722656 C 20.667969 -9.914062 17.867188 -14.339844 12.488281 -18.820312 C 8.34375 -22.234375 6.21875 -25.316406 6.21875 -27.835938 C 6.21875 -28.957031 8.121094 -29.742188 10.921875 -29.742188 C 13.777344 -29.742188 15.683594 -29.179688 15.683594 -28.339844 L 15.683594 -23.132812 L 20.722656 -23.132812 L 20.722656 -28.339844 C 20.722656 -31.8125 16.800781 -34.109375 10.921875 -34.109375 C 5.039062 -34.109375 1.121094 -31.253906 1.121094 -26.996094 C 1.121094 -23.355469 3.921875 -19.15625 9.296875 -14.675781 C 13.496094 -11.203125 15.683594 -8.007812 15.683594 -5.824219 C 15.683594 -4.59375 13.777344 -3.753906 10.867188 -3.753906 C 8.007812 -3.753906 6.105469 -4.3125 6.105469 -5.152344 L 6.105469 -10.867188 Z M 1.0625 -10.921875 " />
			</g>
		</g>
	</g>
	<g fill="#e2b250" fill-opacity="1">
		<g transform="translate(125.362331, 158.341649)">
			<g>
				<path d="M 21.621094 -12.65625 L 16.578125 -12.65625 L 16.632812 -5.265625 C 16.632812 -4.425781 14.675781 -3.808594 11.761719 -3.808594 C 8.90625 -3.808594 6.945312 -4.425781 6.945312 -5.265625 L 6.945312 -17.472656 L 21.621094 -17.472656 L 21.621094 -28.058594 C 21.621094 -31.699219 17.699219 -34.164062 11.761719 -34.164062 C 5.882812 -34.164062 1.902344 -31.699219 1.902344 -28.058594 L 1.902344 -5.542969 C 1.902344 -1.902344 5.882812 0.558594 11.761719 0.558594 C 17.699219 0.558594 21.621094 -1.902344 21.621094 -5.65625 Z M 16.578125 -21.898438 L 6.945312 -21.898438 L 6.945312 -28.226562 C 6.945312 -29.179688 8.90625 -29.796875 11.761719 -29.796875 C 14.675781 -29.796875 16.578125 -29.125 16.578125 -28.058594 Z M 16.578125 -21.898438 " />
			</g>
		</g>
	</g>
	<g fill="#e2b250" fill-opacity="1">
		<g transform="translate(148.937246, 158.341649)">
			<g>
				<path d="M 16.128906 -23.019531 L 21.113281 -23.019531 L 21.113281 -28.394531 C 21.113281 -31.867188 17.921875 -34.164062 13.160156 -34.164062 C 10.472656 -34.164062 8.289062 -33.210938 6.945312 -31.589844 L 6.945312 -33.605469 L 1.902344 -33.605469 L 1.902344 0 L 6.945312 0 L 6.945312 -27.445312 C 6.945312 -28.84375 8.738281 -29.742188 11.480469 -29.742188 C 14.28125 -29.742188 16.128906 -28.730469 16.128906 -27.277344 Z M 16.128906 -23.019531 " />
			</g>
		</g>
	</g>
	<g fill="#f2f2f2" fill-opacity="1">
		<g transform="translate(170.605255, 158.341649)">
			<g>
				<path d="M 18.929688 0 L 18.929688 -4.929688 C 18.929688 -4.984375 18.875 -4.984375 18.820312 -4.929688 C 18.707031 -4.984375 18.652344 -4.984375 18.652344 -4.929688 L 7.5625 -4.929688 L 7.5625 -39.207031 L 2.242188 -39.207031 L 2.242188 0 Z M 18.929688 0 " />
			</g>
		</g>
	</g>
	<g fill="#f2f2f2" fill-opacity="1">
		<g transform="translate(190.372345, 158.341649)">
			<g>
				<path d="M 1.792969 -35.453125 L 7.167969 -35.453125 L 7.167969 -39.207031 L 1.792969 -39.207031 Z M 1.960938 0 L 7 0 L 7 -33.605469 L 1.960938 -33.605469 Z M 1.960938 0 " />
			</g>
		</g>
	</g>
	<g fill="#f2f2f2" fill-opacity="1">
		<g transform="translate(199.331932, 158.341649)">
			<g>
				<path d="M 4.425781 0 L 6.945312 0 L 6.945312 -2.074219 C 8.289062 -0.390625 10.53125 0.558594 13.328125 0.558594 C 18.257812 0.558594 21.5625 -1.734375 21.5625 -5.207031 L 21.5625 -28.394531 C 21.5625 -31.867188 18.257812 -34.164062 13.328125 -34.164062 C 10.53125 -34.164062 8.289062 -33.210938 6.945312 -31.589844 L 6.945312 -39.261719 L 1.902344 -39.261719 L 1.902344 -0.0546875 Z M 6.945312 -27.5 C 6.945312 -28.898438 8.847656 -29.796875 11.648438 -29.796875 C 14.675781 -29.796875 16.632812 -28.789062 16.632812 -27.332031 L 16.632812 -6.554688 C 16.632812 -4.871094 14.675781 -3.753906 11.648438 -3.753906 C 8.847656 -3.753906 6.945312 -4.761719 6.945312 -6.273438 Z M 6.945312 -27.5 " />
			</g>
		</g>
	</g>
</svg>
